<svg xmlns="http://www.w3.org/2000/svg" width="128" height="128" viewBox="0 0 128 128">
  <title>TIMELINE</title>
  <g>
    <path d="M101.521,69.87a1.75,1.75,0,1,0,0-3.5H94.508a1.75,1.75,0,1,0,0,3.5Z"/>
    <path d="M51.224,46.644h55.245a4.287,4.287,0,0,0,4.281-4.281V21.531a4.287,4.287,0,0,0-4.281-4.281H51.224a4.287,4.287,0,0,0-4.282,4.281v4.2l-9.455,4.644a1.749,1.749,0,0,0,0,3.14l9.455,4.644v4.2A4.287,4.287,0,0,0,51.224,46.644Zm-8.995-14.7,7.235-3.554a1.749,1.749,0,0,0,.978-1.57V21.531a.782.782,0,0,1,.782-.781h55.245a.782.782,0,0,1,.781.781V42.363a.782.782,0,0,1-.781.781H51.224a.782.782,0,0,1-.782-.781V37.071a1.749,1.749,0,0,0-.978-1.57Z"/>
    <path d="M17.25,96.091a7.273,7.273,0,0,0,5.516,7.044V109a1.75,1.75,0,0,0,3.5,0v-5.865a7.256,7.256,0,0,0,0-14.089v-18a7.257,7.257,0,0,0,0-14.09V38.992a7.256,7.256,0,0,0,0-14.089V19a1.75,1.75,0,0,0-3.5,0v5.9a7.256,7.256,0,0,0,0,14.089V56.955a7.257,7.257,0,0,0,0,14.09v18A7.274,7.274,0,0,0,17.25,96.091Zm3.5-64.144a3.767,3.767,0,1,1,3.766,3.767A3.77,3.77,0,0,1,20.75,31.947ZM20.75,64a3.767,3.767,0,1,1,3.766,3.767A3.771,3.771,0,0,1,20.75,64Zm3.766,28.324a3.767,3.767,0,1,1-3.766,3.767A3.771,3.771,0,0,1,24.516,92.324Z"/>
    <path d="M51.224,78.7h55.245a4.287,4.287,0,0,0,4.281-4.281V53.584a4.287,4.287,0,0,0-4.281-4.281H51.224a4.287,4.287,0,0,0-4.282,4.281v4.2L37.487,62.43a1.749,1.749,0,0,0,0,3.14l9.455,4.644v4.2A4.287,4.287,0,0,0,51.224,78.7ZM42.229,64l7.235-3.554a1.749,1.749,0,0,0,.978-1.57V53.584a.782.782,0,0,1,.782-.781h55.245a.782.782,0,0,1,.781.781V74.416a.782.782,0,0,1-.781.781H51.224a.782.782,0,0,1-.782-.781V69.124a1.749,1.749,0,0,0-.978-1.57Z"/>
    <path d="M51.224,110.788h55.245a4.287,4.287,0,0,0,4.281-4.282V85.675a4.287,4.287,0,0,0-4.281-4.281H51.224a4.287,4.287,0,0,0-4.282,4.281v4.2l-9.455,4.644a1.749,1.749,0,0,0,0,3.14l9.455,4.644v4.2A4.287,4.287,0,0,0,51.224,110.788Zm-8.995-14.7,7.235-3.554a1.749,1.749,0,0,0,.978-1.57V85.675a.782.782,0,0,1,.782-.781h55.245a.782.782,0,0,1,.781.781v20.831a.782.782,0,0,1-.781.782H51.224a.782.782,0,0,1-.782-.782v-5.291a1.749,1.749,0,0,0-.978-1.57Z"/>
    <path d="M101.521,29.3a1.75,1.75,0,0,0,0-3.5H76.49a1.75,1.75,0,0,0,0,3.5Z"/>
    <path d="M66.923,29.3a1.75,1.75,0,0,0,0-3.5H59.21a1.75,1.75,0,0,0,0,3.5Z"/>
    <path d="M101.521,38.091a1.75,1.75,0,0,0,0-3.5H59.209a1.75,1.75,0,0,0,0,3.5Z"/>
    <path d="M101.521,61.082a1.75,1.75,0,0,0,0-3.5H59.209a1.75,1.75,0,0,0,0,3.5Z"/>
    <path d="M85.1,69.87a1.75,1.75,0,0,0,0-3.5H59.21a1.75,1.75,0,0,0,0,3.5Z"/>
    <path d="M101.521,92.861a1.75,1.75,0,0,0,0-3.5H85.1a1.75,1.75,0,0,0,0,3.5Z"/>
    <path d="M73.1,92.861a1.75,1.75,0,0,0,0-3.5H59.21a1.75,1.75,0,1,0,0,3.5Z"/>
    <path d="M101.521,101.648a1.75,1.75,0,0,0,0-3.5H59.209a1.75,1.75,0,0,0,0,3.5Z"/>
  </g>
</svg>
