<?xml version="1.0" encoding="utf-8"?><svg version="1.1" id="Layer_1" xmlns="http://www.w3.org/2000/svg" xmlns:xlink="http://www.w3.org/1999/xlink" x="0px" y="0px" viewBox="0 0 122.879 101.527" enable-background="new 0 0 122.879 101.527" xml:space="preserve"><g><path d="M9.942,0h102.986c2.727,0,5.213,1.118,7.016,2.918c1.811,1.808,2.936,4.294,2.936,7.023v81.643 c0,2.729-1.123,5.217-2.934,7.026c-1.803,1.799-4.287,2.916-7.018,2.916H9.942c-2.72,0-5.202-1.117-7.009-2.918l-0.024-0.024 C1.113,96.778,0,94.301,0,91.585V9.942c0-2.72,1.117-5.202,2.917-7.009l0.024-0.024C4.749,1.113,7.226,0,9.942,0L9.942,0z M64.596,68.174V33.372h17.92c3.32,0,5.865,0.28,7.613,0.86c1.758,0.571,3.18,1.628,4.256,3.171 c1.074,1.543,1.607,3.433,1.607,5.659c0,1.926-0.41,3.601-1.242,4.994c-0.814,1.412-1.955,2.544-3.406,3.424 c-0.916,0.552-2.178,1.01-3.777,1.375c1.281,0.43,2.207,0.851,2.797,1.28c0.393,0.281,0.963,0.898,1.721,1.834 c0.748,0.935,1.244,1.655,1.496,2.16l5.229,10.055H86.668l-5.742-10.616c-0.73-1.375-1.375-2.272-1.945-2.684 c-0.777-0.533-1.666-0.805-2.637-0.805h-0.945v14.095H64.596L64.596,68.174L64.596,68.174z M48.979,62.44H36.792l-1.749,5.733 H24.072l13.104-34.802H48.95l13.048,34.802h-11.28L48.979,62.44L48.979,62.44L48.979,62.44z M46.707,54.902l-3.797-12.505 l-3.816,12.505H46.707L46.707,54.902L46.707,54.902z M75.389,47.513h4.545c0.486,0,1.441-0.159,2.854-0.477 c0.711-0.141,1.301-0.505,1.74-1.095c0.457-0.589,0.682-1.263,0.682-2.029c0-1.123-0.355-1.993-1.066-2.591 c-0.711-0.608-2.049-0.908-4.021-0.908h-4.732V47.513L75.389,47.513L75.389,47.513z M112.928,7.95H9.942 c-0.555,0-1.052,0.219-1.404,0.572L8.522,8.538C8.169,8.89,7.95,9.387,7.95,9.942v81.643c0,0.555,0.219,1.052,0.572,1.404 l0.016,0.016c0.352,0.353,0.85,0.572,1.404,0.572h102.986c0.561,0,1.066-0.225,1.428-0.587c0.354-0.354,0.574-0.851,0.574-1.405 V9.942c0-0.552-0.221-1.049-0.576-1.403C113.99,8.176,113.484,7.95,112.928,7.95L112.928,7.95z"/></g></svg>