<?xml version="1.0" encoding="utf-8"?><svg version="1.1" id="Layer_1" xmlns="http://www.w3.org/2000/svg" xmlns:xlink="http://www.w3.org/1999/xlink" x="0px" y="0px" viewBox="0 0 122.88 101.527" enable-background="new 0 0 122.88 101.527" xml:space="preserve"><g><path d="M9.942,0h102.986c2.727,0,5.213,1.118,7.016,2.918c1.811,1.808,2.936,4.294,2.936,7.023v81.642 c0,2.729-1.124,5.219-2.935,7.026c-1.802,1.8-4.285,2.917-7.017,2.917H9.942c-2.737,0-5.226-1.118-7.025-2.918l-0.251-0.276 C1.015,96.558,0,94.184,0,91.584V9.942c0-2.72,1.117-5.202,2.917-7.009l0.024-0.024C4.749,1.112,7.226,0,9.942,0L9.942,0z M78.054,33.372c3.321,0,5.865,0.28,7.613,0.86c1.759,0.57,3.18,1.627,4.256,3.17c1.076,1.543,1.609,3.433,1.609,5.659 c0,1.926-0.412,3.601-1.244,4.995c-0.813,1.412-1.955,2.544-3.404,3.422c-0.917,0.553-2.18,1.011-3.779,1.376 c1.281,0.43,2.207,0.851,2.797,1.28c0.393,0.281,0.964,0.898,1.721,1.834c0.748,0.935,1.244,1.655,1.497,2.16l5.228,10.055H82.197 l-5.743-10.615c-0.729-1.376-1.374-2.273-1.945-2.685c-0.775-0.533-1.664-0.805-2.637-0.805h-0.945v14.095H60.134V33.372H78.054 L78.054,33.372z M70.927,47.513h4.546c0.486,0,1.44-0.159,2.853-0.477c0.711-0.141,1.3-0.506,1.739-1.095 c0.459-0.589,0.684-1.263,0.684-2.029c0-1.123-0.355-1.993-1.066-2.591c-0.711-0.608-2.049-0.907-4.021-0.907h-4.733V47.513 L70.927,47.513L70.927,47.513z M28.533,33.372h26.59v7.481H39.326v6.08h13.516v7.052H39.326v14.198H28.533V33.372L28.533,33.372 L28.533,33.372z M112.929,7.95H9.942c-0.555,0-1.052,0.22-1.404,0.572L8.522,8.538C8.169,8.89,7.951,9.387,7.951,9.942v81.642 c0,0.493,0.178,0.945,0.471,1.294l0.116,0.111c0.362,0.362,0.86,0.588,1.404,0.588h102.986c0.56,0,1.065-0.226,1.428-0.587 c0.354-0.354,0.573-0.852,0.573-1.406V9.942c0-0.552-0.221-1.05-0.575-1.403C113.991,8.175,113.485,7.95,112.929,7.95L112.929,7.95 z"/></g></svg>